<?xml version="1.0" encoding="UTF-8"?>
<svg id="Layer_1" data-name="Layer 1" xmlns="http://www.w3.org/2000/svg" viewBox="0 0 1024 1024">
  <path d="M910.68,12.74H113.32c-49.67,0-89.93,40.27-89.93,89.93v818.65c0,49.67,40.27,89.93,89.93,89.93h797.36c49.67,0,89.93-40.26,89.93-89.93V102.68c0-49.67-40.27-89.93-89.93-89.93ZM791.72,727.56l30.25,123.84c4.03,16.48-12.45,30.51-28.08,23.92l-124.91-52.72c-3-1.27-9.5-3.99-17.35-.97-42.54,17.81-89.24,27.66-138.24,27.66-197.83,0-358.2-160.37-358.2-358.2s160.37-358.2,358.2-358.2,358.2,160.37,358.2,358.2c0,82.94-28.2,159.29-75.52,220-2.47,3.17-6.42,7.34-4.33,16.47Z"/>
  <path d="M668.03,382.94h-332.58c-18.99,0-34.39-15.4-34.39-34.39s15.4-34.39,34.39-34.39h332.58c18.99,0,34.39,15.4,34.39,34.39s-15.4,34.39-34.39,34.39Z"/>
  <path d="M596.25,521.47h-260.8c-18.99,0-34.39-15.4-34.39-34.39s15.4-34.39,34.39-34.39h260.8c18.99,0,34.39,15.4,34.39,34.39s-15.4,34.39-34.39,34.39Z"/>
  <path d="M506.29,660.01h-170.83c-18.99,0-34.39-15.4-34.39-34.39s15.4-34.39,34.39-34.39h170.83c18.99,0,34.39,15.4,34.39,34.39s-15.4,34.39-34.39,34.39Z"/>
</svg>